<?xml version="1.0" encoding="UTF-8"?>
<svg width="17px" height="17px" viewBox="0 0 17 17" version="1.1" xmlns="http://www.w3.org/2000/svg" xmlns:xlink="http://www.w3.org/1999/xlink">
    <!-- Generator: Sketch 43.1 (39012) - http://www.bohemiancoding.com/sketch -->
    <title>icon_down</title>
    <desc>Created with Sketch.</desc>
    <defs></defs>
    <g id="Exercise" stroke="none" stroke-width="1" fill="none" fill-rule="evenodd">
        <g id="Competition_detail" transform="translate(-255.000000, -606.000000)" fill="#999999">
            <g id="song" transform="translate(16.000000, 557.000000)">
                <g id="button_download" transform="translate(217.000000, 41.000000)">
                    <path d="M37.7384603,20.4615263 C37.9423333,20.5033316 38.0952381,20.6825605 38.0952381,20.8973684 L38.0952381,23.1210526 C38.0952381,24.1008079 37.2953942,24.8977763 36.3068783,24.9 L23.7883598,24.9 C22.8020794,24.9 22,24.1021421 22,23.1210526 L22,20.8973684 C22,20.6518737 22.2002963,20.4526316 22.4470899,20.4526316 L22.5374021,20.4615263 C22.7412751,20.5033316 22.8941799,20.6825605 22.8941799,20.8973684 L22.8941799,23.1210526 C22.8941799,23.6115974 23.2952196,24.0105263 23.7883598,24.0105263 L36.3068783,24.0105263 L36.3980847,24.0060789 C36.8483042,23.9602711 37.2010582,23.5809105 37.2010582,23.1210526 L37.2010582,20.8973684 C37.2010582,20.6518737 37.4009074,20.4526316 37.6481481,20.4526316 L37.7384603,20.4615263 L37.7384603,20.4615263 Z M30.1379312,8.00889474 C30.3418042,8.0507 30.494709,8.22992895 30.494709,8.44473684 L30.494709,20.4526316 C30.494709,20.6323053 30.3860661,20.7946342 30.2188545,20.8635684 C30.1911349,20.8746868 30.1625212,20.8835816 30.1339074,20.8889184 L30.047619,20.8973684 C29.9313757,20.8973684 29.8169206,20.8520053 29.7315265,20.7670605 L23.0251772,14.0960079 C22.8503651,13.9221158 22.8503651,13.6410421 23.0251772,13.46715 C23.1123598,13.3804263 23.2268148,13.3368421 23.3412698,13.3368421 L23.426664,13.3448474 C23.511164,13.3613026 23.5920873,13.4022184 23.6573624,13.46715 L29.6005291,19.3790368 L29.6005291,8.44473684 C29.6005291,8.19924211 29.8008254,8 30.047619,8 L30.1379312,8.00889474 L30.1379312,8.00889474 Z M36.8393624,13.3448474 C36.9238624,13.3613026 37.0047857,13.4022184 37.0700608,13.46715 C37.244873,13.6410421 37.244873,13.9221158 37.0700608,14.0960079 L33.0462513,18.0986395 C32.9809762,18.1635711 32.9000529,18.2044868 32.8155529,18.2209421 L32.7301587,18.2289474 C32.6157037,18.2289474 32.5012487,18.1853632 32.4140661,18.0986395 C32.239254,17.9247474 32.239254,17.6436737 32.4140661,17.4697816 L36.4378757,13.46715 C36.5250582,13.3804263 36.6395132,13.3368421 36.7539683,13.3368421 L36.8393624,13.3448474 L36.8393624,13.3448474 Z" id="icon_down"></path>
                </g>
            </g>
        </g>
    </g>
</svg>
