<?xml version="1.0" encoding="UTF-8"?>
<svg width="12px" height="12px" viewBox="0 0 12 12" version="1.1" xmlns="http://www.w3.org/2000/svg" xmlns:xlink="http://www.w3.org/1999/xlink">
    <!-- Generator: Sketch 43.1 (39012) - http://www.bohemiancoding.com/sketch -->
    <title>icon_headphone</title>
    <desc>Created with Sketch.</desc>
    <defs></defs>
    <g id="Exercise" stroke="none" stroke-width="1" fill="none" fill-rule="evenodd">
        <g id="works_detail" transform="translate(-125.000000, -421.000000)">
            <g id="singer" transform="translate(0.000000, 375.000000)">
                <rect id="base" fill="#FFFFFF" x="0" y="0" width="375" height="156"></rect>
                <g id="icon_headphone" transform="translate(126.000000, 47.000000)" fill="#313143">
                    <path d="M7.75,6.59821549 L7.75,10.0692593 C8.556,9.9116835 9.16666667,9.19316498 9.16666667,8.33356902 C9.16666667,7.47430976 8.556,6.75579125 7.75,6.59821549 M7.41666667,10.7746465 C7.23233333,10.7746465 7.08333333,10.6241414 7.08333333,10.4379461 L7.08333333,6.22919192 C7.08333333,6.04333333 7.23233333,5.89249158 7.41666667,5.89249158 C8.74933333,5.89249158 9.83333333,6.98744108 9.83333333,8.33356902 C9.83333333,9.67969697 8.74933333,10.7746465 7.41666667,10.7746465" id="Fill-1"></path>
                    <path d="M2.08333333,6.59821549 C1.27733333,6.75579125 0.666666667,7.47430976 0.666666667,8.33356902 C0.666666667,9.19316498 1.27733333,9.9116835 2.08333333,10.0692593 L2.08333333,6.59821549 Z M2.41666667,10.7746465 C1.084,10.7746465 0,9.67969697 0,8.33356902 C0,6.98744108 1.084,5.89249158 2.41666667,5.89249158 C2.601,5.89249158 2.75,6.04333333 2.75,6.22919192 L2.75,10.4379461 C2.75,10.6241414 2.601,10.7746465 2.41666667,10.7746465 L2.41666667,10.7746465 Z" id="Fill-3"></path>
                    <path d="M0.764966667,7.26632997 C0.639633333,7.26632997 0.519633333,7.19461279 0.462966667,7.07239057 C-0.411366667,5.18619529 -0.0190333333,2.92895623 1.43963333,1.45488215 C2.36863333,0.516498316 3.60363333,0 4.91663333,0 C6.2303,0 7.46496667,0.516835017 8.3933,1.45488215 C8.5233,1.58653199 8.5233,1.7996633 8.3933,1.93097643 C8.26296667,2.06262626 8.05196667,2.06262626 7.92196667,1.93097643 C7.11896667,1.11986532 6.05196667,0.673400673 4.91663333,0.673400673 C3.78163333,0.673400673 2.7143,1.11986532 1.91096667,1.93097643 C0.6503,3.20505051 0.310966667,5.15656566 1.0663,6.78686869 C1.14463333,6.95521886 1.07263333,7.15589226 0.905966667,7.23434343 C0.8603,7.25622896 0.8123,7.26632997 0.764966667,7.26632997" id="Fill-5"></path>
                    <path d="M9.07746667,7.24727273 C9.03046667,7.24727273 8.98313333,7.23750842 8.9378,7.2159596 C8.7708,7.13818182 8.6978,6.93784512 8.77546667,6.76915825 C9.52013333,5.14255892 9.17713333,3.19845118 7.9218,1.93111111 C7.7918,1.79946128 7.7918,1.58666667 7.9218,1.45501684 C8.05213333,1.323367 8.26313333,1.323367 8.39313333,1.45501684 C9.84546667,2.9206734 10.2418,5.17016835 9.38013333,7.05198653 C9.3238,7.17488215 9.20346667,7.24727273 9.07746667,7.24727273" id="Fill-7"></path>
                </g>
            </g>
        </g>
    </g>
</svg>