<?xml version="1.0" encoding="UTF-8"?>
<svg width="16px" height="19px" viewBox="0 0 16 19" version="1.1" xmlns="http://www.w3.org/2000/svg" xmlns:xlink="http://www.w3.org/1999/xlink">
    <!-- Generator: Sketch 43.1 (39012) - http://www.bohemiancoding.com/sketch -->
    <title>lock</title>
    <desc>Created with Sketch.</desc>
    <defs></defs>
    <g id="Exercise" stroke="none" stroke-width="1" fill="none" fill-rule="evenodd">
        <g id="Competition_detail" transform="translate(-254.000000, -721.000000)" stroke="#999999">
            <g id="Eg." transform="translate(16.000000, 673.000000)">
                <g id="button_lock" transform="translate(217.000000, 41.000000)">
                    <g id="lock" transform="translate(22.000000, 8.000000)">
                        <path d="M14,14.45 C14,15.85845 12.894,17 11.5294118,17 L2.47058824,17 C1.106,17 0,15.85845 0,14.45 L0,8.925 C0,7.51655 1.106,6.375 2.47058824,6.375 L11.5294118,6.375 C12.894,6.375 14,7.51655 14,8.925 L14,14.45 L14,14.45 Z" id="Shape"></path>
                        <path d="M2.47058824,6.375 L2.47058824,4.25 C2.47058824,1.785425 4.50923529,0 6.89705882,0 L6.84558824,0 C9.23341176,0 11.1176471,1.785425 11.1176471,4.25 L11.1176471,5.1" id="Shape"></path>
                        <path d="M9.05882353,11.05 C9.05882353,12.223425 8.13688235,13.175 7,13.175 C5.86311765,13.175 4.94117647,12.223425 4.94117647,11.05 C4.94117647,9.876575 5.86311765,8.925 7,8.925 C8.13688235,8.925 9.05882353,9.876575 9.05882353,11.05 L9.05882353,11.05 Z" id="Shape"></path>
                        <path d="M7,13.6 L7,14.875" id="Shape"></path>
                    </g>
                </g>
            </g>
        </g>
    </g>
</svg>