<?xml version="1.0" encoding="UTF-8"?>
<svg width="20px" height="20px" viewBox="0 0 20 20" version="1.1" xmlns="http://www.w3.org/2000/svg" xmlns:xlink="http://www.w3.org/1999/xlink">
    <!-- Generator: Sketch 43.1 (39012) - http://www.bohemiancoding.com/sketch -->
    <title>icon_share</title>
    <desc>Created with Sketch.</desc>
    <defs></defs>
    <g id="Exercise" stroke="none" stroke-width="1" fill="none" fill-rule="evenodd" opacity="0.98999995">
        <g id="my_work" transform="translate(-331.000000, -138.000000)" stroke="#999999">
            <g id="item_1" transform="translate(0.000000, 108.000000)">
                <g id="icon_share" transform="translate(331.000000, 30.000000)">
                    <path d="M6.53333333,10 C6.53333333,11.2628571 5.51843333,12.2857143 4.26666667,12.2857143 C3.0149,12.2857143 2,11.2628571 2,10 C2,8.73714286 3.0149,7.71428571 4.26666667,7.71428571 C5.51843333,7.71428571 6.53333333,8.73714286 6.53333333,10 Z" id="Stroke-1"></path>
                    <path d="M19,4.28571429 C19,5.548 17.9862333,6.57142857 16.7333333,6.57142857 C15.4815667,6.57142857 14.4666667,5.548 14.4666667,4.28571429 C14.4666667,3.02285714 15.4815667,2 16.7333333,2 C17.9862333,2 19,3.02285714 19,4.28571429 Z" id="Stroke-3"></path>
                    <path d="M19,15.7142857 C19,16.9771429 17.9862333,18 16.7333333,18 C15.4815667,18 14.4666667,16.9771429 14.4666667,15.7142857 C14.4666667,14.4508571 15.4815667,13.4285714 16.7333333,13.4285714 C17.9862333,13.4285714 19,14.4508571 19,15.7142857 Z" id="Stroke-5"></path>
                    <path d="M8.23333333,8.28571429 L12.7666667,6" id="Stroke-7"></path>
                    <path d="M8.23333333,11.7142857 L12.7666667,14" id="Stroke-9"></path>
                </g>
            </g>
        </g>
    </g>
</svg>