<?xml version="1.0" encoding="UTF-8"?>
<svg width="24px" height="24px" viewBox="0 0 24 24" version="1.1" xmlns="http://www.w3.org/2000/svg" xmlns:xlink="http://www.w3.org/1999/xlink">
    <!-- Generator: Sketch 43.1 (39012) - http://www.bohemiancoding.com/sketch -->
    <title>cancel</title>
    <desc>Created with Sketch.</desc>
    <defs></defs>
    <g id="icon" stroke="none" stroke-width="1" fill="none" fill-rule="evenodd">
        <g id="cancel" fill="#FFFFFF">
            <g id="Group">
                <rect id="Rectangle-4" opacity="0" x="0" y="0" width="24" height="24"></rect>
                <g id="å‰" transform="translate(4.000000, 4.000000)" fill-rule="nonzero">
                    <path d="M15.2587783,14.2203532 L9.02542121,7.9869961 L15.2587783,1.75363901 C15.5457997,1.46661756 15.5457997,1.00239156 15.2587783,0.715370117 C14.9717569,0.428348669 14.5075309,0.428348669 14.2205094,0.715370117 L7.98715232,6.94872721 L1.75379522,0.715370117 C1.46677378,0.428348669 1.00254778,0.428348669 0.715526334,0.715370117 C0.428504887,1.00239156 0.428504887,1.46661756 0.715526334,1.75363901 L6.94888343,7.9869961 L0.715526334,14.2203532 C0.428504887,14.5073746 0.428504887,14.9716006 0.715526334,15.2586221 C1.00254778,15.5456435 1.46677378,15.5456435 1.75379522,15.2586221 L7.98715232,9.02526499 L14.2205094,15.2586221 C14.5075309,15.5456435 14.9717569,15.5456435 15.2587783,15.2586221 C15.5470477,14.9716006 15.5470477,14.5073746 15.2587783,14.2203532 Z" id="Shape" transform="translate(7.987620, 7.986996) rotate(-360.000000) translate(-7.987620, -7.986996) "></path>
                </g>
            </g>
        </g>
    </g>
</svg>