<?xml version="1.0" encoding="UTF-8"?>
<svg width="24px" height="24px" viewBox="0 0 24 24" version="1.1" xmlns="http://www.w3.org/2000/svg" xmlns:xlink="http://www.w3.org/1999/xlink">
    <!-- Generator: Sketch 43.1 (39012) - http://www.bohemiancoding.com/sketch -->
    <title>classify</title>
    <desc>Created with Sketch.</desc>
    <defs></defs>
    <g id="icon" stroke="none" stroke-width="1" fill="none" fill-rule="evenodd">
        <g id="classify" fill="#FFFFFF">
            <g id="Group">
                <rect id="Rectangle-4" opacity="0" x="0" y="0" width="24" height="24"></rect>
                <g id="筛选-2" transform="translate(2.000000, 2.000000)" fill-rule="nonzero">
                    <path d="M16.0606283,10.7007151 L11.8207525,10.7007151 C11.6859141,10.7007151 11.5575315,10.7274996 11.4404351,10.776513 C10.9933396,10.8723192 10.6585101,11.2697145 10.6585101,11.7451971 L10.6585101,16.1028103 C10.6585101,18.2708001 12.4223283,20.0346183 14.5899976,20.0346183 L16.0606053,20.0346183 C18.2285951,20.0346183 19.9924133,18.2708001 19.9924133,16.1028103 L19.9924133,14.6322026 C19.9924133,12.4645332 18.2286181,10.7007151 16.0606283,10.7007151 Z M18.6634868,16.2815728 C18.6634868,17.6181454 17.5759349,18.7056688 16.2393908,18.7056688 L14.4111801,18.7056688 C13.0746075,18.7056688 11.9874825,17.6181454 11.9874825,16.2815728 L11.9874825,12.0296645 L16.2393623,12.0296645 C17.5759349,12.0296645 18.6634583,13.1167895 18.6634583,14.4533621 L18.6634868,16.2815728 L18.6634868,16.2815728 Z" id="Shape"></path>
                    <path d="M8.55926729,10.7762154 C8.44249134,10.7274996 8.31378828,10.700738 8.17927043,10.700738 L3.93937174,10.700738 C1.77138195,10.700738 0.00756378076,12.4645562 0.00756378076,14.6322254 L0.00756378076,16.1028332 C0.00756378076,18.270823 1.77138197,20.0346412 3.93937174,20.0346412 L5.40997951,20.0346412 C7.57796931,20.0346412 9.34178747,18.270823 9.34178747,16.1028332 L9.34178747,11.7451971 C9.34178747,11.2694169 9.00666043,10.8719987 8.55926729,10.7762154 Z M8.01279865,16.2815451 C8.01279865,17.6180772 6.92530822,18.7055676 5.58877615,18.7055676 L3.76062088,18.7055676 C2.42408881,18.7055676 1.33659837,17.6180772 1.33659837,16.2815451 L1.33659837,14.4533898 C1.33659837,13.1168578 2.42408881,12.0297657 3.76062088,12.0297657 L8.01279865,12.0297657 L8.01279865,16.2815451 Z" id="Shape"></path>
                    <path d="M3.93941754,9.34981353 L8.17929333,9.34981353 C8.31413168,9.34981353 8.44251425,9.3230519 8.55961069,9.27401562 C9.00670622,9.17820944 9.34153568,8.78081407 9.34153568,8.30533154 L9.34153566,3.94742069 C9.34153566,1.77975141 7.57771747,0.0159332215 5.41004819,0.0159332215 L3.93944043,0.0159332215 C1.77145063,0.0159332215 0.00763246085,1.77975141 0.00763246085,3.94742069 L0.00763246085,5.41834895 C0.00760955257,7.58601826 1.77138195,9.34981353 3.93941754,9.34981353 Z M1.33654548,3.76857933 C1.33654548,2.4320013 2.4240733,1.34487191 3.76065132,1.34487191 L5.58886945,1.34487191 C6.92544747,1.34487191 8.01257687,2.43200128 8.01257687,3.76857933 L8.01257684,8.02087485 L3.76067977,8.02087485 C2.42410175,8.02087485 1.33657393,6.93374548 1.33657393,5.59716743 L1.33654548,3.76857933 L1.33654548,3.76857933 Z" id="Shape"></path>
                    <path d="M16.0606283,0.0159332215 L14.5900205,0.0159332215 C12.4220307,0.0159332215 10.6582125,1.77975141 10.6582125,3.94742069 L10.6582125,8.30535443 C10.6582125,8.78113459 10.9933625,9.17855282 11.4407785,9.27435902 C11.5575545,9.32307481 11.6862575,9.34983644 11.8207525,9.34983644 L16.0606283,9.34983644 C18.2286181,9.34983644 19.9924362,7.58601826 19.9924362,5.41834897 L19.9924362,3.94742072 C19.9924133,1.77975141 18.2286181,0.0159332215 16.0606283,0.0159332215 Z M18.6634459,5.59711618 C18.6634459,6.93365679 17.57592,8.02075576 16.2394079,8.02075576 L11.9872029,8.02075574 L11.9872029,3.76860769 C11.9872029,2.43206708 13.0747003,1.34496811 14.4112409,1.34496811 L16.2394079,1.34496811 C17.5759485,1.34496811 18.6634459,2.43206705 18.6634459,3.76860769 L18.6634459,5.59711618 Z" id="Shape"></path>
                </g>
            </g>
        </g>
    </g>
</svg>