<?xml version="1.0" encoding="UTF-8"?>
<svg width="20px" height="20px" viewBox="0 0 20 20" version="1.1" xmlns="http://www.w3.org/2000/svg" xmlns:xlink="http://www.w3.org/1999/xlink">
    <!-- Generator: Sketch 43.1 (39012) - http://www.bohemiancoding.com/sketch -->
    <title>discu</title>
    <desc>Created with Sketch.</desc>
    <defs></defs>
    <g id="icon" stroke="none" stroke-width="1" fill="none" fill-rule="evenodd">
        <g id="discu">
            <rect id="Rectangle-4" fill="#FFFFFF" opacity="0" x="0" y="0" width="20" height="20"></rect>
            <g id="comment" transform="translate(1.000000, 2.000000)" fill="#575859">
                <path d="M16.5620018,2.0783048 L16.5620018,11.6077459 C16.5620018,12.1834581 16.0980397,12.6519769 15.5269244,12.6519769 L11.5875317,12.6519769 L11.1508497,12.6519769 L10.8455697,12.9643429 C10.3138991,13.5102055 9.68103729,14.164767 9.27167543,14.6014691 L9.18170536,14.6985051 C9.08360547,14.8036308 8.96135696,14.9350128 8.92897817,14.9567726 C8.92897817,14.9567726 8.90063419,14.9648623 8.80974071,14.9648623 C8.71059699,14.9638386 8.67827842,14.9517141 8.67827842,14.9517141 C8.63180793,14.9289706 8.48322281,14.7702684 8.37502586,14.6545238 L8.30123513,14.5756544 C7.8008393,14.0424382 6.99213235,13.1786491 6.80211524,12.9775112 L6.49585163,12.6519769 L6.04905244,12.6519769 L2.07019502,12.6519769 C1.48998639,12.6519769 1.03509751,12.1930733 1.03509751,11.6077459 L1.03509749,2.07830478 C1.03509749,1.50313461 1.49905965,1.03511758 2.070195,1.03511758 L15.5269244,1.0351176 C16.1071129,1.0351176 16.5620018,1.49353944 16.5620018,2.0783048 Z M2.07019502,0 C0.920898542,0 0,0.930995586 0,2.07832485 L0,11.607766 C0,12.7672398 0.926960794,13.6871146 2.07019502,13.6871146 L6.0490123,13.6871146 C6.23800568,13.8882726 7.04669254,14.7505561 7.54612484,15.2832906 C7.96261283,15.7280422 8.17184045,15.9939177 8.7985597,16 C9.43035763,16 9.6224624,15.7406887 10.0268259,15.3095469 C10.4331165,14.8768996 11.059896,14.2279187 11.5875318,13.6871146 L15.5269244,13.6871146 C16.6762209,13.6871146 17.5970994,12.756099 17.5970994,11.607766 L17.5970993,2.07830478 C17.5970993,0.918851035 16.6702188,0 15.5269244,0 L2.07019502,0 Z" id="Shape" fill-rule="nonzero"></path>
                <path d="M4.75,7.5 C4.33578644,7.5 4,7.16421356 4,6.75 C4,6.33578644 4.33578644,6 4.75,6 C5.16421356,6 5.5,6.33578644 5.5,6.75 C5.5,7.16421356 5.16421356,7.5 4.75,7.5 Z M8.75,7.5 C8.33578644,7.5 8,7.16421356 8,6.75 C8,6.33578644 8.33578644,6 8.75,6 C9.16421356,6 9.5,6.33578644 9.5,6.75 C9.5,7.16421356 9.16421356,7.5 8.75,7.5 Z M12.75,7.5 C12.3357864,7.5 12,7.16421356 12,6.75 C12,6.33578644 12.3357864,6 12.75,6 C13.1642136,6 13.5,6.33578644 13.5,6.75 C13.5,7.16421356 13.1642136,7.5 12.75,7.5 Z" id="Combined-Shape"></path>
            </g>
        </g>
    </g>
</svg>