<?xml version="1.0" encoding="UTF-8"?>
<svg width="20px" height="20px" viewBox="0 0 20 20" version="1.1" xmlns="http://www.w3.org/2000/svg" xmlns:xlink="http://www.w3.org/1999/xlink">
    <!-- Generator: Sketch 43.1 (39012) - http://www.bohemiancoding.com/sketch -->
    <title>like02</title>
    <desc>Created with Sketch.</desc>
    <defs></defs>
    <g id="icon" stroke="none" stroke-width="1" fill="none" fill-rule="evenodd">
        <g id="like02">
            <rect id="Rectangle-4" fill="#FFFFFF" opacity="0" x="0" y="0" width="20" height="20"></rect>
            <g id="点赞" transform="translate(1.000000, 2.000000)" fill-rule="nonzero" fill="#00CD23">
                <path d="M12.5739657,0.0057796682 C11.2591862,0.0057796682 9.98643169,0.520275944 9.0042167,1.43268794 C8.02200171,0.520255977 6.74926711,0.0057796682 5.43395105,0.0057796682 C2.44816214,0.0057796682 0.0192107379,2.58365364 0.0192107379,5.75092143 C0.0192107379,6.54249872 0.146100699,7.3468585 0.396721301,8.14055288 C0.419333379,8.21009775 0.619126466,8.83370479 0.803758718,9.19313315 C2.91159066,13.8097785 8.52054056,16.7417082 8.75838474,16.8636614 L9.0041968,16.9909473 L9.25002872,16.8636614 C9.48787289,16.7417282 15.0965446,13.8097985 17.2073173,9.18776051 C17.2190208,9.16209562 17.4882596,8.55133102 17.6138381,8.13202456 C17.8665848,7.29125456 17.9894809,6.51255967 17.9894809,5.75094142 C17.9895008,2.58365364 15.5599931,0.0057796682 12.5739657,0.0057796682 Z M16.5725496,7.80790789 C16.4666622,8.15980656 16.2171146,8.72673111 16.2171146,8.72673111 C14.5075376,12.4684132 10.0944451,15.127576 9.00419682,15.7404976 C7.91343188,15.127576 3.50194893,12.4727073 1.78064856,8.70426183 C1.65083771,8.45074858 1.48587678,7.96511284 1.43373783,7.80041811 C1.21771093,7.11689304 1.10808802,6.42693676 1.10808802,5.75092141 C1.10808802,3.19445815 3.04859449,1.11500244 5.43393118,1.11500244 C6.6460026,1.11500244 7.76869866,1.63806699 8.59662291,2.5890063 L9.00419683,3.05644692 L9.41123425,2.5890063 C10.2391585,1.63808698 11.3629276,1.11500244 12.5739459,1.11500244 C14.9597992,1.11500244 16.8997691,3.19445815 16.8997691,5.75092141 C16.899789,6.40129186 16.7928287,7.07411157 16.5725496,7.80790789 Z" id="Shape"></path>
            </g>
        </g>
    </g>
</svg>