<?xml version="1.0" encoding="UTF-8"?>
<svg width="24px" height="24px" viewBox="0 0 24 24" version="1.1" xmlns="http://www.w3.org/2000/svg" xmlns:xlink="http://www.w3.org/1999/xlink">
    <!-- Generator: Sketch 43.1 (39012) - http://www.bohemiancoding.com/sketch -->
    <title>more</title>
    <desc>Created with Sketch.</desc>
    <defs></defs>
    <g id="icon" stroke="none" stroke-width="1" fill="none" fill-rule="evenodd">
        <g id="more" fill="#FFFFFF">
            <g id="Group">
                <rect id="Rectangle-4" opacity="0" x="0" y="0" width="24" height="24"></rect>
                <g id="三个圆点" transform="translate(1.000000, 10.000000)" fill-rule="nonzero">
                    <path d="M0.0261011419,2.00437198 C0.0261011419,3.11056667 0.922856304,4.00437198 2.02610114,4.00437198 C3.13229583,4.00437198 4.02610114,3.10761682 4.02610114,2.00437198 C4.02610114,0.898177289 3.12934598,0.00437197915 2.02610114,0.00437197915 C0.919906452,0.00142212665 0.0261011419,0.898177289 0.0261011419,2.00437198 Z" id="Shape"></path>
                    <path d="M9.01207178,2.00176186 C9.01207178,3.10795655 9.90882694,4.00176186 11.0120718,4.00176186 C12.1182665,4.00176186 13.0120718,3.1050067 13.0120718,2.00176186 C13.0120718,0.89556717 12.1153166,0.00176186023 11.0120718,0.00176186023 C9.90882694,-0.00118799228 9.01207178,0.89556717 9.01207178,2.00176186 Z" id="Shape"></path>
                    <path d="M18.0035889,2.00176183 C18.0035889,3.10795652 18.9003441,4.00176183 20.0035889,4.00176183 C21.1068337,4.00176183 22.0035889,3.10500666 22.0035889,2.00176183 C22.0035889,0.895567137 21.1068337,0.00176182708 20.0035889,0.00176182708 C18.9003441,0.00176182708 18.0035889,0.895567137 18.0035889,2.00176183 Z" id="Shape"></path>
                </g>
            </g>
        </g>
    </g>
</svg>