<?xml version="1.0" encoding="UTF-8"?>
<svg width="24px" height="24px" viewBox="0 0 24 24" version="1.1" xmlns="http://www.w3.org/2000/svg" xmlns:xlink="http://www.w3.org/1999/xlink">
    <!-- Generator: Sketch 43.1 (39012) - http://www.bohemiancoding.com/sketch -->
    <title>release</title>
    <desc>Created with Sketch.</desc>
    <defs></defs>
    <g id="icon" stroke="none" stroke-width="1" fill="none" fill-rule="evenodd">
        <g id="release">
            <rect id="Rectangle-4" fill="#FFFFFF" opacity="0" x="0" y="0" width="24" height="24"></rect>
            <g id="Page-1">
                <polygon id="Stroke-1" stroke-opacity="0.00784313771" stroke="#000000" stroke-width="1.33333335e-11" points="0 0 23.9999985 0 23.9999985 23.9999985 0 23.9999985"></polygon>
                <path d="M11.9999993,1.99999994 C6.4699999,1.99999994 1.99999994,6.4699999 1.99999994,11.9999993 C1.99999994,17.5299976 6.4699999,21.9999986 11.9999993,21.9999986 C17.5299976,21.9999986 21.9999986,17.5299976 21.9999986,11.9999993 C21.9999986,6.47000086 17.5299995,1.99999994 11.9999993,1.99999994 Z M11.9999993,20.7499987 C7.17656229,20.7499987 3.2499999,16.8234362 3.2499999,11.9999993 C3.2499999,7.17656229 7.17656229,3.2499999 11.9999993,3.2499999 C16.8234362,3.2499999 20.7499987,7.17656229 20.7499987,11.9999993 C20.7499987,16.8234362 16.8234362,20.7499987 11.9999993,20.7499987 Z" id="Fill-2" fill="#FFFFFF" transform="translate(11.999999, 11.999999) rotate(-270.000000) translate(-11.999999, -11.999999) "></path>
                <path d="M11.5,11.5 L7.50964952,11.5 C7.22765279,11.5 7,11.7238576 7,12 C7,12.2680664 7.22817786,12.5 7.50964952,12.5 L11.5,12.5 L11.5,16.4903505 C11.5,16.7723472 11.7238576,17 12,17 C12.2680664,17 12.5,16.7718221 12.5,16.4903505 L12.5,12.5 L16.4903505,12.5 C16.7723472,12.5 17,12.2761424 17,12 C17,11.7319336 16.7718221,11.5 16.4903505,11.5 L12.5,11.5 L12.5,7.50964952 C12.5,7.22765279 12.2761424,7 12,7 C11.7319336,7 11.5,7.22817786 11.5,7.50964952 L11.5,11.5 Z" id="Combined-Shape" fill="#FFFFFF"></path>
            </g>
        </g>
    </g>
</svg>