<?xml version="1.0" standalone="no"?><!DOCTYPE svg PUBLIC "-//W3C//DTD SVG 1.1//EN" "http://www.w3.org/Graphics/SVG/1.1/DTD/svg11.dtd"><svg class="icon" width="64px" height="64.00px" viewBox="0 0 1024 1024" version="1.1" xmlns="http://www.w3.org/2000/svg"><path d="M511.3 289.1c-19.2 0-31.8 12.8-31.8 31.8v254.8c0 19.2 12.8 31.8 31.8 31.8 18.9 0 31.8-12.8 31.8-31.8V327.4c0-19.1-12.6-38.3-31.8-38.3z m0 375.9c-17.6 0-31.8 14.4-31.8 31.8 0 17.6 14.2 31.8 31.8 31.8s31.8-14.2 31.8-31.8-14.2-31.8-31.8-31.8z"  /><path d="M517.6 66.1h-12.8C262.6 66.1 65 263.6 65 505.8v12.8c0 242.2 197.5 439.7 439.7 439.7h12.8c242.2 0 439.7-197.5 439.7-439.7v-12.8c0.1-242.2-197.4-439.7-439.6-439.7z m0.3 834.5H505c-210.2 0-382.2-172.1-382.2-382.2v-12.8c0-210.2 172.1-382.2 382.2-382.2h12.8C728 123.4 900 295.5 900 505.6v12.8h0.1c0 210.2-172.1 382.2-382.2 382.2z"  /></svg>