<?xml version="1.0" encoding="UTF-8"?>
<svg width="20px" height="20px" viewBox="0 0 20 20" version="1.1" xmlns="http://www.w3.org/2000/svg" xmlns:xlink="http://www.w3.org/1999/xlink">
    <!-- Generator: Sketch 43.1 (39012) - http://www.bohemiancoding.com/sketch -->
    <title>share</title>
    <desc>Created with Sketch.</desc>
    <defs></defs>
    <g id="icon" stroke="none" stroke-width="1" fill="none" fill-rule="evenodd">
        <g id="share">
            <rect id="Rectangle-4" fill="#FFFFFF" opacity="0" x="0" y="0" width="20" height="20"></rect>
            <path d="M17.6432189,8.82954189 C17.3181102,8.82954189 17.0542539,9.09339819 17.0542539,9.41850683 L17.0542539,16.2787445 C17.0542539,16.6038531 16.7903976,16.8677094 16.465289,16.8677094 L3.50806034,16.8677094 C3.1829517,16.8677094 2.9190954,16.6038531 2.9190954,16.2787445 L2.9190954,5.29575226 C2.9190954,4.97064361 3.1829517,4.70678732 3.50806034,4.70678732 L7.63081491,4.70678732 C7.95592356,4.70678732 8.21977985,4.44293103 8.21977985,4.11782238 C8.21977985,3.79271374 7.95592356,3.52885744 7.63081491,3.52885744 C7.61196804,3.52885744 7.59606598,3.53769192 7.57780807,3.53945881 L3.51512792,3.53945881 C2.54039095,3.53945881 1.75,4.33102769 1.75,5.30753156 L1.75,16.2881679 C1.75,17.2646718 2.54039095,18.0562406 3.51512792,18.0562406 L16.4764793,18.0562406 C17.4512163,18.0562406 18.2416072,17.2646718 18.2416072,16.2881679 L18.2416072,9.41850683 C18.2321838,9.09339819 17.9683275,8.82954189 17.6432189,8.82954189 Z M7.97477044,11.4203987 C7.93943254,11.4963751 7.91646291,11.5788302 7.91646291,11.6677639 C7.91646291,11.9928726 8.1803192,12.2567289 8.50542785,12.2567289 C8.78989791,12.2567289 9.01606045,12.0511801 9.07142315,11.7826121 L9.08320245,11.7826121 C9.76640178,8.29122794 12.6535079,5.59376852 16.2367706,5.18856064 L14.9893429,6.43598838 C14.7590576,6.66627367 14.7590576,7.03908848 14.9893429,7.26878481 C15.2196281,7.4990701 15.592443,7.4990701 15.8221393,7.26878481 L18.077286,5.01363806 C18.3075713,4.78335276 18.3075713,4.41053796 18.077286,4.18084163 L15.8221393,1.92569488 C15.591854,1.69540959 15.2190392,1.69540959 14.9893429,1.92569488 C14.7590576,2.15598017 14.7590576,2.52879498 14.9893429,2.7584913 L16.2320589,4.00120733 C12.1263843,4.40994899 8.81286755,7.45666462 7.97477044,11.4203987 Z" id="Shape" fill="#575859" fill-rule="nonzero"></path>
        </g>
    </g>
</svg>